<svg xmlns="http://www.w3.org/2000/svg" xmlns:xlink="http://www.w3.org/1999/xlink" preserveAspectRatio="xMidYMid" width="386" height="7" viewBox="0 0 386 7">
	<defs>
    <style>
			.b { fill: #353432; }
		</style>
	</defs>

<g>
	<path class="b" d="M301.7,6.5c-2.6,0-5.3-0.8-7.1-2.4c-2.8-2.5-8.6-2.5-11.5,0c-3.6,3.2-10.6,3.2-14.1,0c-2.8-2.5-8.6-2.5-11.5,0
		c-3.6,3.2-10.6,3.2-14.1,0c-2.8-2.5-8.6-2.5-11.5,0c-3.6,3.2-10.6,3.2-14.1,0c-2.8-2.5-8.6-2.5-11.5,0c-3.6,3.2-10.6,3.2-14.1,0
		c-2.8-2.5-8.6-2.5-11.5,0c-3.6,3.2-10.6,3.2-14.1,0c-2.8-2.5-8.6-2.5-11.5,0c-3.6,3.2-10.6,3.2-14.1,0c-2.8-2.5-8.6-2.5-11.5,0
		c-3.6,3.2-10.6,3.2-14.1,0c-2.8-2.5-8.6-2.5-11.5,0c-3.6,3.2-10.6,3.2-14.1,0c-2.8-2.5-8.6-2.5-11.5,0C75,7.3,68,7.3,64.4,4.2
		c-2.8-2.5-8.6-2.5-11.5,0c-3.6,3.2-10.6,3.2-14.1,0c-2.8-2.5-8.6-2.5-11.5,0c-3.6,3.2-10.6,3.2-14.1,0c-2.8-2.5-8.6-2.5-11.5,0
		c-0.4,0.4-1,0.3-1.4-0.1S0,3,0.4,2.7C4-0.5,11-0.5,14.6,2.7c2.8,2.5,8.6,2.5,11.5,0c3.6-3.2,10.6-3.2,14.1,0
		c2.8,2.5,8.6,2.5,11.5,0c3.6-3.2,10.6-3.2,14.1,0c2.8,2.5,8.6,2.5,11.5,0c3.6-3.2,10.6-3.2,14.1,0c2.8,2.5,8.6,2.5,11.5,0
		c3.6-3.2,10.6-3.2,14.1,0c2.8,2.5,8.6,2.5,11.5,0c3.6-3.2,10.6-3.2,14.1,0c2.8,2.5,8.6,2.5,11.5,0c3.6-3.2,10.6-3.2,14.1,0
		c2.8,2.5,8.6,2.5,11.5,0c3.6-3.2,10.6-3.2,14.1,0c2.8,2.5,8.6,2.5,11.5,0c3.6-3.2,10.6-3.2,14.1,0c2.8,2.5,8.6,2.5,11.5,0
		c3.6-3.2,10.6-3.2,14.1,0c2.8,2.5,8.6,2.5,11.5,0c3.6-3.2,10.6-3.2,14.1,0c2.8,2.5,8.6,2.5,11.5,0c3.6-3.2,10.6-3.2,14.1,0
		c2.8,2.5,8.6,2.5,11.5,0c3.6-3.2,10.6-3.2,14.1,0c2.8,2.5,8.6,2.5,11.5,0c3.6-3.2,10.6-3.2,14.1,0c2.8,2.5,8.6,2.5,11.5,0
		c3.6-3.2,10.6-3.2,14.1,0c2.8,2.5,8.6,2.5,11.5,0c0.4-0.4,1-0.3,1.4,0.1c0.4,0.4,0.3,1-0.1,1.4c-3.6,3.2-10.6,3.2-14.1,0
		c-2.8-2.5-8.6-2.5-11.5,0c-3.6,3.2-10.6,3.2-14.1,0c-2.8-2.5-8.6-2.5-11.5,0c-3.6,3.2-10.6,3.2-14.1,0c-2.8-2.5-8.6-2.5-11.5,0
		C307,5.7,304.4,6.5,301.7,6.5z"/>
</g>
</svg>
