<svg xmlns="http://www.w3.org/2000/svg" xmlns:xlink="http://www.w3.org/1999/xlink" preserveAspectRatio="xMidYMid" width="4" height="87" viewBox="0 0 4 87">
	<defs>
    <style>
			.b { fill: #353432; }
		</style>
	</defs>
<g>
	<path class="b" d="M2.2,86.6c-0.1,0-0.3-0.1-0.4-0.2c-1.3-1.5-1.3-4.5,0-6c1-1.1,1-3.5,0-4.7c-1.3-1.5-1.3-4.5,0-6
		c1-1.1,1-3.5,0-4.7c-1.3-1.5-1.3-4.5,0-6c1-1.1,1-3.5,0-4.7c-1.3-1.5-1.3-4.5,0-6c1-1.1,1-3.5,0-4.7c-1.3-1.5-1.3-4.5,0-6
		c1-1.1,1-3.5,0-4.7c-1.3-1.5-1.3-4.5,0-6c1-1.1,1-3.5,0-4.7c-1.3-1.5-1.3-4.5,0-6c1-1.1,1-3.5,0-4.7c-1.3-1.5-1.3-4.5,0-6
		c1-1.1,1-3.5,0-4.7c-0.2-0.2-0.2-0.5,0-0.7c0.2-0.2,0.5-0.2,0.7,0c1.3,1.5,1.3,4.5,0,6c-1,1.1-1,3.5,0,4.7c1.3,1.5,1.3,4.5,0,6
		c-1,1.1-1,3.5,0,4.7c1.3,1.5,1.3,4.5,0,6c-1,1.1-1,3.5,0,4.7c1.3,1.5,1.3,4.5,0,6c-1,1.1-1,3.5,0,4.7c1.3,1.5,1.3,4.5,0,6
		c-1,1.1-1,3.5,0,4.7c1.3,1.5,1.3,4.5,0,6c-1,1.1-1,3.5,0,4.7c1.3,1.5,1.3,4.5,0,6c-1,1.1-1,3.5,0,4.7c1.3,1.5,1.3,4.5,0,6
		c-1,1.1-1,3.5,0,4.7c0.2,0.2,0.2,0.5,0,0.7C2.5,86.6,2.4,86.6,2.2,86.6z"/>
</g>
</svg>
